<svg stroke-linejoin="round" xmlns="http://www.w3.org/2000/svg" fill-rule="evenodd" height="100%" width="100%" version="1.1" stroke-miterlimit="1.4142" clip-rule="evenodd" viewBox="0 0 48 48">
	<path fill="#fff" d="m40.882 5.527c-.439-.439-1.152-.439-1.591 0l-33.764 33.764c-.439.439-.439 1.152 0 1.591l1.591 1.591c.439.439 1.152.439 1.591 0l33.764-33.764c.439-.439.439-1.152 0-1.591l-1.591-1.591z"/>
	<path fill="#fff" d="m42.473 40.882c.439-.439.439-1.152 0-1.591l-33.764-33.764c-.439-.439-1.152-.439-1.591 0l-1.591 1.591c-.439.439-.439 1.152 0 1.591l33.764 33.764c.439.439 1.152.439 1.591 0l1.591-1.591z"/>
</svg>
